<svg xmlns="http://www.w3.org/2000/svg" xmlns:xlink="http://www.w3.org/1999/xlink" width="180.62mm" height="159.4mm" viewBox="0 0 512 451.85"><defs><style>.a{fill:url(#a);}.b{fill:#fff;}.c{fill:#fffdfd;}</style><linearGradient id="a" x1="-1258.81" y1="-307.08" x2="-834.03" y2="-644.27" gradientTransform="translate(-729.79 -385.99) rotate(-171.59)" gradientUnits="userSpaceOnUse"><stop offset="0" stop-color="#9013fe"/><stop offset="1" stop-color="#6610f2"/></linearGradient></defs><polygon class="a" points="335.11 0 463.11 86.3 512 225.93 463.11 365.56 335.11 451.85 176.89 451.85 48.89 365.56 0 225.93 48.89 86.3 176.89 0 335.11 0"/><path class="b" d="M173.67,247.72c-1.62-.8-2.43-.8-3.24-1.61-5.67-1.61-11.34-2.42-17-4-8.1-1.61-15.39-4-23.48-6.45a202.47,202.47,0,0,1-21-5.64,6.12,6.12,0,0,1-3.24-1.61l-.81-.81V60.75h2.43c8.91-2.41,18.62-4.83,27.53-7.25,7.28-1.61,14.57-4,21.86-5.64l17-4.84Z"/><path class="b" d="M182.57,43c5.67,1.62,11.34,3.23,16.2,4.84s10.52,2.42,15.38,4l26.72,7.25c4,.81,8.09,2.42,12.14,3.23A1.73,1.73,0,0,1,254.63,64V89.77c-4-.81-8.1-1.62-12.95-2.42-8.1-.81-16.2-2.42-23.48-3.23-3.24-.8-4.86,1.62-5.67,4.84V206.62c.81,3.22,2.43,4.84,5.67,4.84,3.24-.81,6.47-.81,9.71-1.62,4.05-.8,4.86-1.61,4.86-5.64V134.9c7.29,0,14.57.8,21.86.8v97.51c-8.1,1.62-15.38,4-23.48,5.65s-15.38,4-23.48,6.44a205.68,205.68,0,0,0-21,5.64c-1.62,0-2.43.81-4.05,1.62Z"/><path class="b" d="M339.64,240.47V208.23c4.86-.8,10.52-1.61,15.38-2.42,5.67-.8,10.53-1.61,16.19-2.41,3.24-.81,6.48-.81,9.72-1.62,2.43,0,3.24-1.61,4.05-4V159.88a3.82,3.82,0,0,0-4.05-4c-8.91.8-17,.8-25.91,1.61H339.64V42.22c2.43.8,4.05,1.61,6.48,1.61,4.85,1.61,9.71,2.42,13.76,4,5.67,1.61,11.33,3.22,16.19,4.83,5.67,1.62,12.15,3.23,17.81,4.84,2.43.81,5.67,1.61,8.1,2.42a.79.79,0,0,1,.81.8v25c-2.43-.81-5.67-.81-8.1-1.62-3.24-.8-5.67-.8-8.9-1.61-4.86-.8-8.91-1.61-13.77-2.42-.81,0-2.43-.8-3.24,0q-2.41,1.22-2.42,4.84V122c0,3.22,1.61,4.84,4.85,4.84,10.53.8,20.24.8,30.77,1.61h.81v91.06c0,1.62-.81,2.42-1.62,2.42a68.78,68.78,0,0,0-13.76,4c-5.67,1.61-10.53,3.23-16.2,4.84s-12.14,3.22-17.81,4.83c-4,.81-7.28,2.42-11.33,3.23C341.26,239.66,340.45,239.66,339.64,240.47Z"/><path class="b" d="M332.35,157.46c-20.24-.81-40.48-2.42-61.53-3.22V60c4.05-.81,8.1-2.42,12.15-3.23,5.66-1.61,12.14-3.22,17.81-4.83l7.28-2.42a174.91,174.91,0,0,0,19.43-5.64c1.62,0,2.43-.81,4.05-1.61C332.35,80.9,332.35,118.78,332.35,157.46Z"/><path class="b" d="M332.35,240.47c-4.05-1.61-8.09-2.42-12.14-4a3,3,0,0,1-2.43-.81c-4.86-1.61-9.72-2.42-14.57-4-5.67-1.61-10.53-3.22-16.2-4.83a85.11,85.11,0,0,0-15.38-4l-.81-.81V197a17.83,17.83,0,0,0,6.48.81c7.28,1.61,15.38,2.41,22.67,4l14.57,2.42c4.86.81,10.53,1.61,15.38,2.42.81,0,1.62.81,2.43.81Z"/><path class="b" d="M314.54,165.52c4.86,0,9.72.81,14.57.81h20.24c8.91-.81,17.82-.81,27.53-1.62v27.4c-2.43,0-5.67-.8-8.1-.8-5.66-.81-12.14-1.61-17.81-2.42l-19.43-2.42c-4.86-.8-10.52-1.61-15.38-2.41a.79.79,0,0,1-.81-.81A136,136,0,0,1,314.54,165.52Z"/><path class="c" d="M110.64,338.33c-37.85,1.51-40.9-33.79-37.85-69.85,0-15,25-13.52,23.81,0v36.06c.61,13.51,17.1,15.77,24.42,9,7.33-4.51,3-37.56,4.28-45.07,0-14.27,23.81-14.27,23.81,0-1.83,39.06,12.82,108.16-39.08,104.4-8.55,1.51-16.48-10.51-8.55-18,7.94-5.26,25.65-1.5,23.82-18.78A49.73,49.73,0,0,1,110.64,338.33Z"/><path class="c" d="M202.84,258c58.61-2.26,58.61,83.37,0,81.12C144.83,341.34,144.83,255.71,202.84,258Zm0,21c-26.87-2.25-26.87,39.81,0,38.3C230.31,319.56,230.31,277.5,202.84,279Z"/><path class="c" d="M307.24,282c-5.49,3-2.44,19.53-3.05,24.79-1.83,48.07-76.32,28.54-34.8,9.76,9.77,1.5,11.6-11.26,11-19.53C273.66,236.19,368.3,261,307.24,282Z"/><path class="c" d="M381.73,339.09c-32.36,3.75-63.5-41.31-31.75-69.1,42.13-33.05,94.64,4.5,73.88,66.09-34.19,18-11-38.3-26.87-51.07-14.65-16.53-50.67,5.25-29.91,27,6.1,6.76,17.09,3.75,23.81,8.26C398.21,327.82,390.28,339.84,381.73,339.09Z"/><path d="M125.73,381.54h3.65v28.94h-3.65Z"/><path d="M135.88,394.07a13.38,13.38,0,0,1,4.26-.69,9.76,9.76,0,0,1,3.35.51,8.24,8.24,0,0,1,3.44,2.32,5.25,5.25,0,0,1,1.4,3.55v10.72H145v-9.85a3.58,3.58,0,0,0-1.27-2.83A4.18,4.18,0,0,0,142,397a10.89,10.89,0,0,0-2.31-.23,6.06,6.06,0,0,0-3.8,1.3,3.67,3.67,0,0,0-1.23,2.83v9.63h-3.35V400a5.65,5.65,0,0,1,1.33-3.6A7.19,7.19,0,0,1,135.88,394.07Z"/><path d="M163.09,409.94a10.48,10.48,0,0,1-3.42.54,12.21,12.21,0,0,1-4.21-.72,7.43,7.43,0,0,1-3.29-2.36,5.56,5.56,0,0,1-1.3-3.58V383.24h3.34v10.22h6v3h-6l0,6.57a3.66,3.66,0,0,0,1.23,2.82,6.14,6.14,0,0,0,3.81,1.3,10.67,10.67,0,0,0,2.34-.22,4.1,4.1,0,0,0,1.67-.83,3.67,3.67,0,0,0,1-1.23,3.93,3.93,0,0,0,.29-1.63V403h3.34v1.09a5.22,5.22,0,0,1-1.42,3.53A7.84,7.84,0,0,1,163.09,409.94Z"/><path d="M183.16,394.54a7.59,7.59,0,0,1,1.69,1.42,10.65,10.65,0,0,1,1.15,1.41l1.19,1.7-1,.73-9.87,6.12a.78.78,0,0,0,.34.65,4.15,4.15,0,0,0,.9.36,6,6,0,0,0,1.68.22,8.19,8.19,0,0,0,3.61-.94,29.22,29.22,0,0,0,3-1.85l.5,3.75a22,22,0,0,1-3.58,1.62,12.89,12.89,0,0,1-4.19.75,9.26,9.26,0,0,1-2.22-.25A8,8,0,0,1,172,407.5a9,9,0,0,1-2.14-4.65c0-.24,0-.45,0-.63a4.27,4.27,0,0,1,0-.49,7.29,7.29,0,0,1,1.05-3.86,10,10,0,0,1,3.08-3.08,8.6,8.6,0,0,1,4.86-1.33A8.46,8.46,0,0,1,183.16,394.54Zm-1.35,3.73c.15-.14.05-.33-.31-.58a5.43,5.43,0,0,0-2.88-.76,4.27,4.27,0,0,0-.65,0,5.1,5.1,0,0,0-2.1.85,4.55,4.55,0,0,0-1.52,1.76,4.19,4.19,0,0,0-.3,1.74,3.28,3.28,0,0,0,.13,1.08q.13.36.48.15l6.15-3.62Z"/><path d="M193.88,394.07a13.45,13.45,0,0,1,4.27-.69,9.7,9.7,0,0,1,3.34.51,8.24,8.24,0,0,1,3.44,2.32,5.2,5.2,0,0,1,1.4,3.55v1.09H203v-.22a3.9,3.9,0,0,0-.29-1.63,3.62,3.62,0,0,0-1-1.22A4.13,4.13,0,0,0,200,397a10.86,10.86,0,0,0-2.3-.23,6.08,6.08,0,0,0-3.81,1.3,3.67,3.67,0,0,0-1.23,2.83v9.63h-3.34V400a5.64,5.64,0,0,1,1.32-3.6A7.25,7.25,0,0,1,193.88,394.07Z"/><path d="M213.1,394.07a13.4,13.4,0,0,1,4.27-.69,9.7,9.7,0,0,1,3.34.51,8.24,8.24,0,0,1,3.44,2.32,5.2,5.2,0,0,1,1.4,3.55v10.72h-3.34v-9.85a3.55,3.55,0,0,0-1.27-2.83,4.18,4.18,0,0,0-1.77-.85,10.86,10.86,0,0,0-2.3-.23,6.08,6.08,0,0,0-3.81,1.3,3.67,3.67,0,0,0-1.23,2.83v9.63h-3.34V400a5.64,5.64,0,0,1,1.32-3.6A7.25,7.25,0,0,1,213.1,394.07Z"/><path d="M241,394.54A7.59,7.59,0,0,1,242.7,396a10.65,10.65,0,0,1,1.15,1.41l1.19,1.7-1,.73-9.88,6.12a.79.79,0,0,0,.35.65,4.15,4.15,0,0,0,.9.36,6,6,0,0,0,1.68.22,8.19,8.19,0,0,0,3.61-.94,30.41,30.41,0,0,0,3-1.85l.5,3.75a22,22,0,0,1-3.58,1.62,12.89,12.89,0,0,1-4.19.75,9.41,9.41,0,0,1-2.23-.25,8,8,0,0,1-4.24-2.73,9,9,0,0,1-2.14-4.65c0-.24,0-.45-.05-.63a4.27,4.27,0,0,1,0-.49,7.29,7.29,0,0,1,1.05-3.86,10,10,0,0,1,3.08-3.08,8.6,8.6,0,0,1,4.86-1.33A8.46,8.46,0,0,1,241,394.54Zm-1.35,3.73c.15-.14.05-.33-.31-.58a5.43,5.43,0,0,0-2.88-.76,4.27,4.27,0,0,0-.65,0,5,5,0,0,0-2.1.85,4.55,4.55,0,0,0-1.52,1.76,4.19,4.19,0,0,0-.3,1.74,3.28,3.28,0,0,0,.13,1.08q.14.36.48.15l6.15-3.62Z"/><path d="M259.34,409.94a10.48,10.48,0,0,1-3.42.54,12.21,12.21,0,0,1-4.21-.72,7.43,7.43,0,0,1-3.29-2.36,5.56,5.56,0,0,1-1.3-3.58V383.24h3.34v10.22h6v3h-6l0,6.57a3.66,3.66,0,0,0,1.23,2.82,6.14,6.14,0,0,0,3.81,1.3,10.74,10.74,0,0,0,2.34-.22,4.1,4.1,0,0,0,1.67-.83,3.67,3.67,0,0,0,1-1.23,3.93,3.93,0,0,0,.29-1.63V403h3.34v1.09a5.22,5.22,0,0,1-1.42,3.53A7.84,7.84,0,0,1,259.34,409.94Z"/><path d="M291.28,393.46V404.3a2.73,2.73,0,0,0,.81,2,3.61,3.61,0,0,0,2.69,1,8.54,8.54,0,0,0,3.79-.67,2.17,2.17,0,0,0,1.28-2V393.46h3.69l0,17.9a12.4,12.4,0,0,1-1,4.05A8.48,8.48,0,0,1,297,420a12.51,12.51,0,0,1-3.27.44,13.43,13.43,0,0,1-3-.33,7.91,7.91,0,0,1-4-2.3,10.38,10.38,0,0,1-2.52-4.22c-.18-.62-.28-1-.31-1.21s0-.56,0-1.14h3.35a5.64,5.64,0,0,0,1.34,3.62,6,6,0,0,0,2.33,1.83,7,7,0,0,0,2.9.63,6.88,6.88,0,0,0,2.11-.32,6.29,6.29,0,0,0,2.87-1.92,4.57,4.57,0,0,0,1.29-3.08v-2.25a11.94,11.94,0,0,1-2.21.64,13.1,13.1,0,0,1-2.29.2,9.65,9.65,0,0,1-2.23-.26,7,7,0,0,1-2-.79,9.26,9.26,0,0,1-2.81-2.28,8.44,8.44,0,0,1-.92-4.48v-9.32Z"/><path d="M339.68,381.54v21.31a8.38,8.38,0,0,0,.22,2.11,2.6,2.6,0,0,0,.92,1.39,4,4,0,0,0,1.38.65,6,6,0,0,0,1.61.22A3.43,3.43,0,0,0,345,407a16.73,16.73,0,0,0,2.06-.9c.74-.65,1.11-1.91,1.11-3.76V381.54h4.08V402a10.7,10.7,0,0,1-.56,3.87,8.44,8.44,0,0,1-1.94,2.75,5.9,5.9,0,0,1-2.49,1.46,10.49,10.49,0,0,1-3.23.49,11,11,0,0,1-3.15-.43,7.06,7.06,0,0,1-2.26-1.31c-.29-.21-.68-.55-1.19-1a9.46,9.46,0,0,1-1.66,1.38,10.16,10.16,0,0,1-5.35,1.37,6.93,6.93,0,0,1-5.12-2c-1.51-1.49-2.27-3.66-2.27-6.49V381.54h4.12v20.75c0,.94,0,1.51,0,1.7a3.27,3.27,0,0,0,1.15,2.29,4,4,0,0,0,1.38.65,6.45,6.45,0,0,0,1.62.22,3.39,3.39,0,0,0,1.15-.18c1.28-.51,1.95-.79,2-.84.72-.58,1.07-1.69,1.07-3.34V381.54Z"/><path d="M354.44,389.8a2.23,2.23,0,0,1,.78-1.72,2.73,2.73,0,0,1,1.87-.71,2.5,2.5,0,0,1,1.82.74,2.45,2.45,0,0,1,.75,1.8,2.12,2.12,0,0,1-.78,1.68,2.79,2.79,0,0,1-1.87.67,2.5,2.5,0,0,1-1.84-.72A2.34,2.34,0,0,1,354.44,389.8Zm.88,3.62h3.46v17.24h-3.46Z"/><path d="M366.66,383.93a12.16,12.16,0,0,1,4.23-.72,10.37,10.37,0,0,1,3.38.54,8.15,8.15,0,0,1,3.44,2.32,5.2,5.2,0,0,1,1.4,3.55v1.08h-3.34v-.21a4,4,0,0,0-.29-1.65,3.62,3.62,0,0,0-1-1.22,4.08,4.08,0,0,0-1.75-.84,10.22,10.22,0,0,0-2.3-.24,6.09,6.09,0,0,0-3.81,1.31,3.69,3.69,0,0,0-1.23,2.84v2.69h6v3h-6v14.09h-3.34V389.87a5.58,5.58,0,0,1,1.3-3.58A7.43,7.43,0,0,1,366.66,383.93Z"/><path d="M381.34,389.8a2.24,2.24,0,0,1,.79-1.72,2.72,2.72,0,0,1,1.86-.71,2.52,2.52,0,0,1,1.83.74,2.45,2.45,0,0,1,.75,1.8,2.1,2.1,0,0,1-.79,1.68,2.74,2.74,0,0,1-1.86.67,2.53,2.53,0,0,1-1.85-.72A2.38,2.38,0,0,1,381.34,389.8Zm.89,3.62h3.46v17.24h-3.46Z"/></svg>